<?xml version="1.0" encoding="UTF-8"?><svg id="Layer_1" xmlns="http://www.w3.org/2000/svg" viewBox="0 0 300 300"><defs><style>.cls-1{fill:#000;}.cls-1,.cls-2{stroke-width:0px;}.cls-2{fill:#fff;}</style></defs><circle class="cls-2" cx="150" cy="150" r="150"/><path class="cls-1" d="M152.34,135.09l.39,2.34c0,7.8-2.47,15.34-7.41,22.62-4.94,7.28-10.92,13.39-17.94,18.33-7.02,4.94-13.52,8.06-19.5,9.36-.26.26-.65.33-1.17.19-.52-.13-.91-.45-1.17-.97-.52-.26-.78-.78-.78-1.56s.13-1.3.39-1.56c2.6-7.02,6.76-13.65,12.48-19.89,10.66-12.22,22.23-21.84,34.71-28.86ZM259.59,140.55c0-7.02-1.37-13.71-4.09-20.08-2.73-6.37-6.57-11.76-11.5-16.19-10.4-9.36-24.05-14.04-40.95-14.04-14.56,0-29.38,2.86-44.46,8.58-10.92-5.72-24.44-8.58-40.56-8.58-22.36,0-40.75,4.16-55.19,12.48-14.43,8.32-24.51,15.73-30.22,22.23l21.84,23.4c5.72-5.72,13.84-11.9,24.38-18.52,10.53-6.63,23.59-9.95,39.2-9.95h3.9l-8.19,6.24c-10.92,9.36-20.35,19.83-28.28,31.39-7.93,11.57-11.89,22.43-11.89,32.57,0,8.32,2.86,15.08,8.58,20.28,5.2,4.94,12.35,7.41,21.45,7.41,11.44,0,23.33-3.77,35.69-11.31,12.35-7.54,22.62-17.55,30.81-30.03,8.19-12.48,12.29-25.48,12.29-39,0-3.64-.91-8.45-2.73-14.43,7.02-2.08,14.82-3.12,23.4-3.12,8.06,0,14.49,1.89,19.3,5.66,4.81,3.77,7.21,8.77,7.21,15.01,0,9.36-4.16,19.5-12.48,30.42-8.32,10.92-15.86,18.85-22.62,23.79l20.67,24.18c3.64-2.86,8.9-7.93,15.79-15.21,6.89-7.28,13.39-16.58,19.5-27.89,6.11-11.31,9.17-23.07,9.17-35.29Z"/></svg>