<?xml version="1.0" encoding="UTF-8"?><svg id="Layer_1" xmlns="http://www.w3.org/2000/svg" viewBox="0 0 300 300"><defs><style>.cls-1{fill:#000;}.cls-1,.cls-2{stroke-width:0px;}.cls-2{fill:#fff;}</style></defs><circle class="cls-2" cx="150" cy="150" r="150"/><path class="cls-1" d="M175.16,126.92c6.89,6.89,10.34,15.28,10.34,25.16s-3.45,17.94-10.34,24.96c-6.89,7.02-15.28,10.53-25.15,10.53s-17.94-3.51-24.96-10.53c-7.02-7.02-10.53-15.34-10.53-24.96s3.44-18.26,10.33-25.16c6.89-6.89,15.27-10.33,25.16-10.33s18.26,3.45,25.15,10.33ZM218.25,152.08c0-12.48-3.06-23.92-9.17-34.32-6.11-10.4-14.43-18.65-24.96-24.76-10.53-6.11-21.91-9.17-34.12-9.17s-23.92,3.06-34.32,9.17c-10.4,6.11-18.66,14.37-24.76,24.76-6.11,10.4-9.17,21.84-9.17,34.32s3.05,23.59,9.17,34.12c6.11,10.53,14.36,18.85,24.76,24.96,10.4,6.11,21.84,9.17,34.32,9.17s23.6-3.05,34.12-9.17c10.53-6.11,18.85-14.43,24.96-24.96,6.11-10.53,9.17-21.9,9.17-34.12Z"/></svg>