<?xml version="1.0" encoding="UTF-8"?><svg id="Layer_1" xmlns="http://www.w3.org/2000/svg" viewBox="0 0 300 300"><defs><style>.cls-1{fill:#000;}.cls-1,.cls-2{stroke-width:0px;}.cls-2{fill:#fff;}</style></defs><circle class="cls-2" cx="150" cy="150" r="150"/><path class="cls-1" d="M213.18,118.56c0-21.58-3.84-39.19-11.5-52.84-7.67-13.65-14.89-23.85-21.65-30.62l-23.79,21.45c5.2,5.2,11.12,13.33,17.75,24.38,6.63,11.05,9.81,24.38,9.55,39.97v3.9l-6.24-8.58c-9.1-11.18-19.37-20.8-30.81-28.86-11.44-8.06-22.23-12.22-32.37-12.48-8.32,0-15.08,2.86-20.28,8.58-5.2,5.2-7.8,12.61-7.8,22.23,0,11.44,3.71,23.34,11.11,35.69,7.41,12.35,17.16,22.62,29.25,30.81,12.09,8.19,24.89,12.42,38.41,12.68,3.64,0,8.45-.91,14.43-2.73,2.34,7.8,3.25,15.73,2.73,23.79,0,8.06-1.95,14.43-5.85,19.11-3.9,4.68-8.97,7.02-15.21,7.02-9.36-.26-19.44-4.68-30.23-13.26-10.79-8.58-18.52-16.25-23.2-23.01l-24.57,20.28c6.24,8.32,16.44,18.01,30.62,29.06,14.17,11.05,29.83,16.71,46.99,16.96,14.82,0,27.04-5.07,36.66-15.21,9.62-10.4,14.43-24.83,14.43-43.29,0-13.78-2.6-27.82-7.8-42.12,6.24-10.4,9.36-24.7,9.36-42.9ZM165.6,155.22c-7.8,0-15.34-2.54-22.62-7.6-7.28-5.07-13.33-11.18-18.13-18.33-4.81-7.15-7.74-13.71-8.78-19.7-.26-.26-.33-.65-.19-1.17.13-.52.45-.91.98-1.17.26-.52.78-.78,1.56-.78s1.3.13,1.56.39c7.28,2.86,13.78,7.15,19.5,12.87,11.44,10.14,20.93,21.84,28.47,35.1l-2.34.39Z"/></svg>