<?xml version="1.0" encoding="UTF-8"?><svg id="Layer_1" xmlns="http://www.w3.org/2000/svg" viewBox="0 0 300 300"><defs><style>.cls-1{fill:#000;}.cls-1,.cls-2{stroke-width:0px;}.cls-2{fill:#fff;}</style></defs><circle class="cls-2" cx="150" cy="150" r="150"/><path class="cls-1" d="M167.35,145.55c4.68,4.68,7.02,10.4,7.02,17.16s-2.34,12.16-7.02,16.96c-4.68,4.81-10.4,7.21-17.16,7.21s-12.16-2.4-16.96-7.21c-4.81-4.81-7.21-10.46-7.21-16.96s2.4-12.48,7.21-17.16c4.81-4.68,10.46-7.02,16.96-7.02s12.48,2.34,17.16,7.02ZM211.03,103.82h-43.68v-22.62h-34.32v22.62h-44.07v31.2h13.26c-4.94,8.58-7.41,17.81-7.41,27.69s2.47,19.11,7.41,27.69c4.94,8.58,11.7,15.34,20.28,20.28,8.58,4.94,17.81,7.41,27.69,7.41s19.11-2.47,27.69-7.41c8.58-4.94,15.34-11.7,20.28-20.28,4.94-8.58,7.41-17.81,7.41-27.69s-2.47-19.11-7.41-27.69h12.87v-31.2Z"/></svg>