<?xml version="1.0" encoding="UTF-8"?><svg id="Layer_1" xmlns="http://www.w3.org/2000/svg" viewBox="0 0 300 300"><defs><style>.cls-1{fill:#000;}.cls-1,.cls-2{stroke-width:0px;}.cls-2{fill:#fff;}</style></defs><circle class="cls-2" cx="150" cy="150" r="150"/><path class="cls-1" d="M172.81,129.77c6.11,6.11,9.16,13.72,9.16,22.81s-3.06,16.38-9.16,22.62c-6.11,6.24-13.72,9.36-22.82,9.36s-16.38-3.12-22.62-9.36-9.36-13.78-9.36-22.62,3.12-16.7,9.36-22.81c6.24-6.11,13.78-9.17,22.62-9.17s16.7,3.06,22.82,9.17ZM213.18,152.59c0-11.44-2.8-22.03-8.38-31.78-5.6-9.75-13.26-17.42-23.01-23.01-9.75-5.59-20.35-8.38-31.78-8.38s-22.04,2.8-31.79,8.38c-9.75,5.59-17.42,13.26-23.01,23.01-5.59,9.75-8.38,20.35-8.38,31.78s2.79,22.04,8.38,31.79c5.59,9.75,13.26,17.42,23.01,23.01,9.75,5.59,20.34,8.38,31.79,8.38s22.03-2.79,31.78-8.38c9.75-5.59,17.42-13.26,23.01-23.01,5.59-9.75,8.38-20.34,8.38-31.79Z"/></svg>