<?xml version="1.0" encoding="UTF-8"?><svg id="Layer_1" xmlns="http://www.w3.org/2000/svg" viewBox="0 0 300 300"><defs><style>.cls-1{fill:#000;stroke-width:0px;}</style></defs><path class="cls-1" d="M117.63,163.95c-5.72,6.24-9.88,12.87-12.48,19.89-.26.26-.39.78-.39,1.56s.26,1.3.78,1.56c.26.52.65.85,1.17.97.52.13.91.07,1.17-.19,5.98-1.3,12.48-4.42,19.5-9.36,7.02-4.94,13-11.05,17.94-18.33,4.94-7.28,7.41-14.82,7.41-22.62l-.39-2.34c-12.48,7.02-24.05,16.64-34.71,28.86Z"/><path class="cls-1" d="M150,0C67.16,0,0,67.16,0,150s67.16,150,150,150,150-67.16,150-150S232.84,0,150,0ZM250.43,175.84c-6.11,11.31-12.61,20.61-19.5,27.89-6.89,7.28-12.16,12.35-15.79,15.21l-20.67-24.18c6.76-4.94,14.3-12.87,22.62-23.79,8.32-10.92,12.48-21.06,12.48-30.42,0-6.24-2.41-11.24-7.21-15.01-4.81-3.77-11.25-5.66-19.3-5.66-8.58,0-16.38,1.04-23.4,3.12,1.82,5.98,2.73,10.79,2.73,14.43,0,13.52-4.09,26.52-12.29,39-8.19,12.48-18.46,22.49-30.81,30.03-12.35,7.54-24.25,11.31-35.69,11.31-9.1,0-16.25-2.47-21.45-7.41-5.72-5.2-8.58-11.96-8.58-20.28,0-10.14,3.96-20.99,11.89-32.57,7.93-11.57,17.36-22.03,28.28-31.39l8.19-6.24h-3.9c-15.6,0-28.67,3.31-39.2,9.95-10.53,6.63-18.66,12.81-24.38,18.52l-21.84-23.4c5.72-6.5,15.79-13.91,30.22-22.23,14.43-8.32,32.82-12.48,55.19-12.48,16.12,0,29.64,2.86,40.56,8.58,15.08-5.72,29.9-8.58,44.46-8.58,16.9,0,30.55,4.68,40.95,14.04,4.94,4.42,8.77,9.82,11.5,16.19,2.73,6.37,4.09,13.06,4.09,20.08,0,12.22-3.06,23.99-9.17,35.29Z"/></svg>