<?xml version="1.0" encoding="UTF-8"?><svg id="Layer_1" xmlns="http://www.w3.org/2000/svg" viewBox="0 0 300 300"><defs><style>.cls-1{fill:#000;stroke-width:0px;}</style></defs><path class="cls-1" d="M150.19,138.53c-6.5,0-12.16,2.34-16.96,7.02-4.81,4.68-7.21,10.4-7.21,17.16s2.4,12.16,7.21,16.96c4.81,4.81,10.46,7.21,16.96,7.21s12.48-2.4,17.16-7.21c4.68-4.81,7.02-10.46,7.02-16.96s-2.34-12.48-7.02-17.16c-4.68-4.68-10.4-7.02-17.16-7.02Z"/><path class="cls-1" d="M150,0C67.16,0,0,67.16,0,150s67.16,150,150,150,150-67.16,150-150S232.84,0,150,0ZM211.03,135.02h-12.87c4.94,8.58,7.41,17.81,7.41,27.69s-2.47,19.11-7.41,27.69c-4.94,8.58-11.7,15.34-20.28,20.28-8.58,4.94-17.81,7.41-27.69,7.41s-19.11-2.47-27.69-7.41c-8.58-4.94-15.34-11.7-20.28-20.28-4.94-8.58-7.41-17.81-7.41-27.69s2.47-19.11,7.41-27.69h-13.26v-31.2h44.07v-22.62h34.32v22.62h43.68v31.2Z"/></svg>