<?xml version="1.0" encoding="UTF-8"?><svg id="Layer_1" xmlns="http://www.w3.org/2000/svg" viewBox="0 0 300 300"><defs><style>.cls-1{fill:#000;stroke-width:0px;}</style></defs><path class="cls-1" d="M150,120.61c-8.84,0-16.38,3.06-22.62,9.17-6.24,6.11-9.36,13.72-9.36,22.81s3.12,16.38,9.36,22.62,13.78,9.36,22.62,9.36,16.7-3.12,22.82-9.36c6.11-6.24,9.16-13.78,9.16-22.62s-3.06-16.7-9.16-22.81c-6.11-6.11-13.72-9.17-22.82-9.17Z"/><path class="cls-1" d="M150,0C67.16,0,0,67.16,0,150s67.16,150,150,150,150-67.16,150-150S232.84,0,150,0ZM204.79,184.37c-5.6,9.75-13.26,17.42-23.01,23.01-9.75,5.59-20.35,8.38-31.78,8.38s-22.04-2.79-31.79-8.38c-9.75-5.59-17.42-13.26-23.01-23.01-5.59-9.75-8.38-20.34-8.38-31.79s2.79-22.03,8.38-31.78c5.59-9.75,13.26-17.42,23.01-23.01,9.75-5.59,20.34-8.38,31.79-8.38s22.03,2.8,31.78,8.38c9.75,5.59,17.42,13.26,23.01,23.01,5.59,9.75,8.38,20.35,8.38,31.78s-2.8,22.04-8.38,31.79Z"/></svg>