<?xml version="1.0" encoding="UTF-8"?><svg id="Layer_1" xmlns="http://www.w3.org/2000/svg" viewBox="0 0 300 300"><defs><style>.cls-1{fill:#000;stroke-width:0px;}</style></defs><path class="cls-1" d="M139.47,119.73c-5.72-5.72-12.22-10.01-19.5-12.87-.26-.26-.78-.39-1.56-.39s-1.3.26-1.56.78c-.52.26-.85.65-.98,1.17-.13.52-.07.91.19,1.17,1.04,5.98,3.96,12.55,8.78,19.7,4.81,7.15,10.85,13.26,18.13,18.33,7.28,5.07,14.82,7.6,22.62,7.6l2.34-.39c-7.54-13.26-17.03-24.96-28.47-35.1Z"/><path class="cls-1" d="M150,0C67.16,0,0,67.16,0,150s67.16,150,150,150,150-67.16,150-150S232.84,0,150,0ZM211.62,203.58c0,18.46-4.81,32.89-14.43,43.29-9.62,10.14-21.84,15.21-36.66,15.21-17.16-.26-32.83-5.91-46.99-16.96-14.17-11.05-24.38-20.73-30.62-29.06l24.57-20.28c4.68,6.76,12.41,14.43,23.2,23.01,10.79,8.58,20.87,13,30.23,13.26,6.24,0,11.31-2.34,15.21-7.02,3.9-4.68,5.85-11.05,5.85-19.11.52-8.06-.39-15.99-2.73-23.79-5.98,1.82-10.79,2.73-14.43,2.73-13.52-.26-26.32-4.49-38.41-12.68-12.09-8.19-21.84-18.46-29.25-30.81-7.41-12.35-11.11-24.24-11.11-35.69,0-9.62,2.6-17.03,7.8-22.23,5.2-5.72,11.96-8.58,20.28-8.58,10.14.26,20.93,4.42,32.37,12.48,11.44,8.06,21.71,17.68,30.81,28.86l6.24,8.58v-3.9c.26-15.6-2.92-28.92-9.55-39.97-6.63-11.05-12.55-19.17-17.75-24.38l23.79-21.45c6.76,6.76,13.97,16.96,21.65,30.62,7.67,13.65,11.5,31.27,11.5,52.84,0,18.2-3.12,32.5-9.36,42.9,5.2,14.3,7.8,28.34,7.8,42.12Z"/></svg>