<?xml version="1.0" encoding="UTF-8"?><svg id="Layer_1" xmlns="http://www.w3.org/2000/svg" viewBox="0 0 300 300"><defs><style>.cls-1{fill:#000;stroke-width:0px;}</style></defs><path class="cls-1" d="M150,116.59c-9.88,0-18.27,3.45-25.16,10.33-6.89,6.89-10.33,15.28-10.33,25.16s3.51,17.94,10.53,24.96c7.02,7.02,15.34,10.53,24.96,10.53s18.26-3.51,25.15-10.53c6.89-7.02,10.34-15.34,10.34-24.96s-3.45-18.26-10.34-25.16c-6.89-6.89-15.28-10.33-25.15-10.33Z"/><path class="cls-1" d="M150,0C67.16,0,0,67.16,0,150s67.16,150,150,150,150-67.16,150-150S232.84,0,150,0ZM209.09,186.2c-6.11,10.53-14.43,18.85-24.96,24.96-10.53,6.11-21.91,9.17-34.12,9.17s-23.92-3.05-34.32-9.17c-10.4-6.11-18.66-14.43-24.76-24.96-6.11-10.53-9.17-21.9-9.17-34.12s3.05-23.92,9.17-34.32c6.11-10.4,14.36-18.65,24.76-24.76,10.4-6.11,21.84-9.17,34.32-9.17s23.6,3.06,34.12,9.17c10.53,6.11,18.85,14.37,24.96,24.76,6.11,10.4,9.17,21.84,9.17,34.32s-3.06,23.59-9.17,34.12Z"/></svg>